<svg xmlns="http://www.w3.org/2000/svg" viewBox="0 0 490.4 100.44"><defs><style>.cls-1{fill:#ed2939;}.cls-2{fill:#fff;}</style></defs><g id="Layer_2" data-name="Layer 2"><g id="Layer_1-2" data-name="Layer 1"><path class="cls-1" d="M0,85V69.05H16.41V85Z"/><path class="cls-2" d="M33.4,85,12.63,26.91H29.74L41.9,65.27,54.17,26.91H70.34L49.45,85Z"/><path class="cls-2" d="M84.51,60c.47,8.73,5.43,14.4,13,14.4,5,0,9.33-2.48,10.39-6.49h15.81c-3.54,11.92-13.1,18.65-25.49,18.65-19.36,0-29-10.63-29-31.64,0-17.94,10.27-29.5,28.1-29.5S124.52,36.94,124.52,60Zm24.19-9.68c-.23-8.62-5.9-12.75-11.92-12.75S85.57,42.25,85,50.28Z"/><path class="cls-2" d="M129.83,85V26.91h14.4v7c5.08-7.79,11-8.49,17.23-8.49h2V41.07a26.49,26.49,0,0,0-4.25-.35c-9.44,0-14.05,4.72-14.05,14.05V85Z"/><path class="cls-2" d="M204.9,85V49.81c0-9-2.6-11.45-9.92-11.45-8,0-11.92,4.48-11.92,13.34V85H167.72V26.91h14.63v8.5c3.54-6.49,9.45-10,18.77-10,11.09,0,19.24,6.72,19.24,19.35V85Z"/><path class="cls-2" d="M241.13,60c.47,8.73,5.43,14.4,13,14.4,5,0,9.33-2.48,10.39-6.49h15.82c-3.54,11.92-13.1,18.65-25.5,18.65-19.35,0-29-10.63-29-31.64,0-17.94,10.27-29.5,28.09-29.5S281.14,36.94,281.14,60Zm24.2-9.68c-.24-8.62-5.9-12.75-11.92-12.75s-11.22,4.72-11.81,12.75Z"/><path class="cls-2" d="M319.38,46.74h14.28V63.26c0,12.28-7.08,23.26-23.48,23.26-17,0-23.73-10.86-23.73-23.37V11.21h15.11v15.7h32.1V37.77h-32.1V61.61c0,7.32,2.6,11.57,8.85,11.57s9-4.13,9-11.33Z"/><path class="cls-2" d="M340.27,20V5.67h15.35V20Zm0,65V26.91h15.35V85Z"/><path class="cls-2" d="M414.87,64c-1.66,13.46-12.63,22.55-26.68,22.55-15.82,0-26.67-10.51-26.67-31.28s10.85-29.86,27.14-29.86C403.77,25.38,414,34,415,47.68H399.52c-.82-6-5.19-9.56-11-9.56-6.5,0-11.81,4.13-11.81,16.76s5.31,18.77,11.33,18.77S398.81,70.23,399.4,64Z"/><path class="cls-1" d="M449,100.44c-17.11,0-20.06-6-20.06-18.65,0-2.71.59-12,.59-14.28,0-9.09-2.36-12.27-9.68-12.27V45.09c7.32,0,9.68-3.31,9.68-12.4,0-2.24-.59-11.33-.59-14C428.91,6,431.86,0,449,0h4.37V9.68h-2.59c-6.85,0-8.86,1.89-8.86,7.43,0,7.09.71,13.93.71,21,0,6.61-6,11.22-12.63,12,6.61.83,12.63,5.43,12.63,12,0,7.08-.71,14-.71,21.13,0,5.55,2,7.43,8.86,7.43h2.59v9.68Z"/><path class="cls-1" d="M456.88,100.44V90.76h2.6c6.85,0,8.85-1.88,8.85-7.43,0-7.08-.71-14-.71-21.13,0-6.61,6-11.21,12.63-12-6.61-.82-12.63-5.43-12.63-12,0-7.08.71-13.92.71-21,0-5.54-2-7.43-8.85-7.43h-2.6V0h4.37c17.11,0,20.06,6,20.06,18.65,0,2.71-.59,11.8-.59,14,0,9.09,2.37,12.4,9.68,12.4V55.24c-7.31,0-9.68,3.18-9.68,12.27,0,2.24.59,11.57.59,14.28,0,12.63-2.95,18.65-20.06,18.65Z"/></g></g></svg>